<svg width="175" height="175" viewBox="0 0 175 175" fill="none" xmlns="http://www.w3.org/2000/svg">
<g clip-path="url(#clip0_8_2)">
<path d="M161.024 21.875H21.2674C13.6506 22.1829 7.5712 28.8791 7.29169 37.2685V145.023C7.5712 153.413 13.6506 160.109 21.2674 160.417H161.024C168.641 160.109 174.721 153.413 175 145.023V37.2685C174.871 33.231 173.358 29.3974 170.764 26.5407C168.17 23.6839 164.69 22.0167 161.024 21.875ZM161.024 145.023H21.2674V37.2685H161.024V145.023ZM105.122 129.63V120.009C105.122 107.232 81.7821 100.767 70.1823 100.767C58.5825 100.767 35.2431 107.232 35.2431 120.009V129.63H105.122ZM70.1823 52.662C65.5491 52.662 61.1056 54.6893 57.8294 58.2979C54.5532 61.9064 52.7127 66.8007 52.7127 71.9039C52.7127 74.4308 53.1646 76.933 54.0425 79.2675C54.9204 81.602 56.2072 83.7232 57.8294 85.51C61.1056 89.1186 65.5491 91.1458 70.1823 91.1458C72.4765 91.1458 74.7481 90.6481 76.8676 89.6811C78.9872 88.7141 80.913 87.2968 82.5352 85.51C84.1574 83.7232 85.4442 81.602 86.3221 79.2675C87.2001 76.933 87.6519 74.4308 87.6519 71.9039C87.6519 69.3771 87.2001 66.8749 86.3221 64.5404C85.4442 62.2058 84.1574 60.0846 82.5352 58.2979C80.913 56.5111 78.9872 55.0937 76.8676 54.1267C74.7481 53.1597 72.4765 52.662 70.1823 52.662ZM105.122 52.662V60.3588H147.049V52.662H105.122ZM105.122 68.0556V75.7523H147.049V68.0556H105.122ZM105.122 83.4491V91.1458H133.073V83.4491H105.122Z" fill="#DED27C"/>
</g>
<defs>
<clipPath id="clip0_8_2">
<rect width="175" height="175" fill="white"/>
</clipPath>
</defs>
</svg>
